<mxfile host="app.diagrams.net" modified="2021-10-09T10:04:14.253Z" agent="5.0 (Windows NT 10.0; Win64; x64) AppleWebKit/537.36 (KHTML, like Gecko) Chrome/94.0.4606.61 Safari/537.36" etag="qPi-v3irIGyVYRx2rwvS" version="15.5.0" type="github">
  <diagram id="kgpKYQtTHZ0yAKxKKP6v" name="Page-1">
    <mxGraphModel dx="1422" dy="794" grid="1" gridSize="10" guides="1" tooltips="1" connect="1" arrows="1" fold="1" page="1" pageScale="1" pageWidth="850" pageHeight="1100" math="0" shadow="0">
      <root>
        <mxCell id="0" />
        <mxCell id="1" parent="0" />
        <mxCell id="3nuBFxr9cyL0pnOWT2aG-1" value="podWorker" style="shape=umlLifeline;perimeter=lifelinePerimeter;container=1;collapsible=0;recursiveResize=0;shadow=0;strokeWidth=1;rounded=1;" parent="1" vertex="1">
          <mxGeometry x="93" y="40" width="100" height="690" as="geometry" />
        </mxCell>
        <mxCell id="3nuBFxr9cyL0pnOWT2aG-2" value="" style="points=[];perimeter=orthogonalPerimeter;shadow=0;strokeWidth=1;rounded=1;" parent="3nuBFxr9cyL0pnOWT2aG-1" vertex="1">
          <mxGeometry x="45" y="60" width="10" height="570" as="geometry" />
        </mxCell>
        <mxCell id="CH359fGrDtfwWzSx6-Jh-15" value="" style="endArrow=classic;html=1;rounded=0;edgeStyle=orthogonalEdgeStyle;exitX=1.45;exitY=0.796;exitDx=0;exitDy=0;exitPerimeter=0;entryX=1.45;entryY=0.927;entryDx=0;entryDy=0;entryPerimeter=0;" edge="1" parent="3nuBFxr9cyL0pnOWT2aG-1">
          <mxGeometry width="50" height="50" relative="1" as="geometry">
            <mxPoint x="55" y="60.00400000000002" as="sourcePoint" />
            <mxPoint x="55" y="95.89800000000002" as="targetPoint" />
            <Array as="points">
              <mxPoint x="87" y="59.89999999999998" />
              <mxPoint x="87" y="95.89999999999998" />
            </Array>
          </mxGeometry>
        </mxCell>
        <mxCell id="3nuBFxr9cyL0pnOWT2aG-5" value="podManager" style="shape=umlLifeline;perimeter=lifelinePerimeter;container=1;collapsible=0;recursiveResize=0;shadow=0;strokeWidth=1;rounded=1;" parent="1" vertex="1">
          <mxGeometry x="237" y="40" width="100" height="690" as="geometry" />
        </mxCell>
        <mxCell id="3nuBFxr9cyL0pnOWT2aG-6" value="" style="points=[];perimeter=orthogonalPerimeter;shadow=0;strokeWidth=1;rounded=1;" parent="3nuBFxr9cyL0pnOWT2aG-5" vertex="1">
          <mxGeometry x="45" y="119" width="10" height="30" as="geometry" />
        </mxCell>
        <mxCell id="3nuBFxr9cyL0pnOWT2aG-7" value="return" style="verticalAlign=bottom;endArrow=open;dashed=1;endSize=8;exitX=0;exitY=0.95;shadow=0;strokeWidth=1;" parent="1" edge="1">
          <mxGeometry relative="1" as="geometry">
            <mxPoint x="148" y="187.5" as="targetPoint" />
            <mxPoint x="282" y="187.5" as="sourcePoint" />
          </mxGeometry>
        </mxCell>
        <mxCell id="3nuBFxr9cyL0pnOWT2aG-8" value="UpdatePod" style="verticalAlign=bottom;endArrow=block;entryX=0;entryY=0;shadow=0;strokeWidth=1;" parent="1" edge="1">
          <mxGeometry relative="1" as="geometry">
            <mxPoint x="148" y="159" as="sourcePoint" />
            <mxPoint x="282" y="159" as="targetPoint" />
          </mxGeometry>
        </mxCell>
        <mxCell id="mIXVUf0EgtsAIi1GxRL5-3" value="statusManager" style="shape=umlLifeline;perimeter=lifelinePerimeter;container=1;collapsible=0;recursiveResize=0;shadow=0;strokeWidth=1;rounded=1;" parent="1" vertex="1">
          <mxGeometry x="380" y="40" width="100" height="690" as="geometry" />
        </mxCell>
        <mxCell id="mIXVUf0EgtsAIi1GxRL5-4" value="" style="points=[];perimeter=orthogonalPerimeter;shadow=0;strokeWidth=1;rounded=1;" parent="mIXVUf0EgtsAIi1GxRL5-3" vertex="1">
          <mxGeometry x="45" y="180" width="10" height="40" as="geometry" />
        </mxCell>
        <mxCell id="mIXVUf0EgtsAIi1GxRL5-10" value="" style="points=[];perimeter=orthogonalPerimeter;shadow=0;strokeWidth=1;rounded=1;" parent="mIXVUf0EgtsAIi1GxRL5-3" vertex="1">
          <mxGeometry x="45" y="250" width="10" height="40" as="geometry" />
        </mxCell>
        <mxCell id="mIXVUf0EgtsAIi1GxRL5-13" value="return" style="verticalAlign=bottom;endArrow=open;dashed=1;endSize=8;shadow=0;strokeWidth=1;" parent="mIXVUf0EgtsAIi1GxRL5-3" edge="1">
          <mxGeometry relative="1" as="geometry">
            <mxPoint x="-232" y="289" as="targetPoint" />
            <mxPoint x="48" y="289" as="sourcePoint" />
          </mxGeometry>
        </mxCell>
        <mxCell id="mIXVUf0EgtsAIi1GxRL5-53" value="return" style="verticalAlign=bottom;endArrow=open;dashed=1;endSize=8;shadow=0;strokeWidth=1;" parent="mIXVUf0EgtsAIi1GxRL5-3" edge="1">
          <mxGeometry relative="1" as="geometry">
            <mxPoint x="-234" y="630" as="targetPoint" />
            <mxPoint x="210" y="630" as="sourcePoint" />
          </mxGeometry>
        </mxCell>
        <mxCell id="mIXVUf0EgtsAIi1GxRL5-6" value="" style="endArrow=classic;html=1;entryX=-0.24;entryY=0.031;entryDx=0;entryDy=0;entryPerimeter=0;" parent="1" target="mIXVUf0EgtsAIi1GxRL5-4" edge="1">
          <mxGeometry width="50" height="50" relative="1" as="geometry">
            <mxPoint x="151" y="221" as="sourcePoint" />
            <mxPoint x="335" y="270" as="targetPoint" />
          </mxGeometry>
        </mxCell>
        <mxCell id="mIXVUf0EgtsAIi1GxRL5-7" value="setPodAllocation" style="edgeLabel;html=1;align=center;verticalAlign=middle;resizable=0;points=[];rounded=1;" parent="mIXVUf0EgtsAIi1GxRL5-6" vertex="1" connectable="0">
          <mxGeometry x="0.0936" y="1" relative="1" as="geometry">
            <mxPoint y="-8" as="offset" />
          </mxGeometry>
        </mxCell>
        <mxCell id="mIXVUf0EgtsAIi1GxRL5-26" value="genericRuntimeManager" style="shape=umlLifeline;perimeter=lifelinePerimeter;container=1;collapsible=0;recursiveResize=0;shadow=0;strokeWidth=1;rounded=1;" parent="1" vertex="1">
          <mxGeometry x="522" y="40" width="153" height="690" as="geometry" />
        </mxCell>
        <mxCell id="mIXVUf0EgtsAIi1GxRL5-28" value="" style="points=[];perimeter=orthogonalPerimeter;shadow=0;strokeWidth=1;rounded=1;" parent="mIXVUf0EgtsAIi1GxRL5-26" vertex="1">
          <mxGeometry x="71.5" y="276" width="10" height="354" as="geometry" />
        </mxCell>
        <mxCell id="CH359fGrDtfwWzSx6-Jh-1" value="" style="endArrow=classic;html=1;rounded=0;edgeStyle=orthogonalEdgeStyle;exitX=1.45;exitY=0.796;exitDx=0;exitDy=0;exitPerimeter=0;entryX=1.45;entryY=0.927;entryDx=0;entryDy=0;entryPerimeter=0;" edge="1" parent="mIXVUf0EgtsAIi1GxRL5-26">
          <mxGeometry width="50" height="50" relative="1" as="geometry">
            <mxPoint x="83" y="591.104" as="sourcePoint" />
            <mxPoint x="83" y="626.998" as="targetPoint" />
            <Array as="points">
              <mxPoint x="115" y="591" />
              <mxPoint x="115" y="627" />
            </Array>
          </mxGeometry>
        </mxCell>
        <mxCell id="mIXVUf0EgtsAIi1GxRL5-9" value="return" style="verticalAlign=bottom;endArrow=open;dashed=1;endSize=8;shadow=0;strokeWidth=1;" parent="1" edge="1">
          <mxGeometry relative="1" as="geometry">
            <mxPoint x="150" y="260" as="targetPoint" />
            <mxPoint x="430" y="260" as="sourcePoint" />
          </mxGeometry>
        </mxCell>
        <mxCell id="mIXVUf0EgtsAIi1GxRL5-32" value="" style="endArrow=classic;html=1;entryX=0.47;entryY=0.58;entryDx=0;entryDy=0;entryPerimeter=0;" parent="1" edge="1">
          <mxGeometry width="50" height="50" relative="1" as="geometry">
            <mxPoint x="150" y="359" as="sourcePoint" />
            <mxPoint x="593.9100000000001" y="358.5999999999999" as="targetPoint" />
          </mxGeometry>
        </mxCell>
        <mxCell id="mIXVUf0EgtsAIi1GxRL5-33" value="syncPod" style="edgeLabel;html=1;align=center;verticalAlign=middle;resizable=0;points=[];rounded=1;" parent="mIXVUf0EgtsAIi1GxRL5-32" vertex="1" connectable="0">
          <mxGeometry x="-0.0528" y="4" relative="1" as="geometry">
            <mxPoint y="-6" as="offset" />
          </mxGeometry>
        </mxCell>
        <mxCell id="mIXVUf0EgtsAIi1GxRL5-34" value="podContainerManager" style="shape=umlLifeline;perimeter=lifelinePerimeter;container=1;collapsible=0;recursiveResize=0;shadow=0;strokeWidth=1;rounded=1;" parent="1" vertex="1">
          <mxGeometry x="716" y="40" width="153" height="690" as="geometry" />
        </mxCell>
        <mxCell id="mIXVUf0EgtsAIi1GxRL5-35" value="" style="points=[];perimeter=orthogonalPerimeter;shadow=0;strokeWidth=1;rounded=1;" parent="mIXVUf0EgtsAIi1GxRL5-34" vertex="1">
          <mxGeometry x="71.5" y="350" width="10" height="50" as="geometry" />
        </mxCell>
        <mxCell id="mIXVUf0EgtsAIi1GxRL5-38" value="return" style="verticalAlign=bottom;endArrow=open;dashed=1;endSize=8;shadow=0;strokeWidth=1;" parent="mIXVUf0EgtsAIi1GxRL5-34" edge="1">
          <mxGeometry relative="1" as="geometry">
            <mxPoint x="-112" y="399" as="targetPoint" />
            <mxPoint x="74" y="399" as="sourcePoint" />
          </mxGeometry>
        </mxCell>
        <mxCell id="CH359fGrDtfwWzSx6-Jh-14" value="return" style="verticalAlign=bottom;endArrow=open;dashed=1;endSize=8;shadow=0;strokeWidth=1;" edge="1" parent="mIXVUf0EgtsAIi1GxRL5-34">
          <mxGeometry relative="1" as="geometry">
            <mxPoint x="-114" y="565" as="targetPoint" />
            <mxPoint x="237" y="565" as="sourcePoint" />
          </mxGeometry>
        </mxCell>
        <mxCell id="mIXVUf0EgtsAIi1GxRL5-36" value="" style="endArrow=classic;html=1;" parent="1" edge="1">
          <mxGeometry width="50" height="50" relative="1" as="geometry">
            <mxPoint x="604" y="392" as="sourcePoint" />
            <mxPoint x="790" y="392" as="targetPoint" />
          </mxGeometry>
        </mxCell>
        <mxCell id="mIXVUf0EgtsAIi1GxRL5-37" value="setPodCgroupConfig" style="text;html=1;align=center;verticalAlign=middle;resizable=0;points=[];autosize=1;strokeColor=none;fillColor=none;rounded=1;" parent="1" vertex="1">
          <mxGeometry x="635" y="370" width="130" height="20" as="geometry" />
        </mxCell>
        <mxCell id="mIXVUf0EgtsAIi1GxRL5-39" value="remote" style="shape=umlLifeline;perimeter=lifelinePerimeter;container=1;collapsible=0;recursiveResize=0;shadow=0;strokeWidth=1;rounded=1;" parent="1" vertex="1">
          <mxGeometry x="910" y="41" width="100" height="689" as="geometry" />
        </mxCell>
        <mxCell id="mIXVUf0EgtsAIi1GxRL5-51" value="return" style="verticalAlign=bottom;endArrow=open;dashed=1;endSize=8;shadow=0;strokeWidth=1;" parent="mIXVUf0EgtsAIi1GxRL5-39" edge="1">
          <mxGeometry relative="1" as="geometry">
            <mxPoint x="-307" y="497" as="targetPoint" />
            <mxPoint x="44" y="497" as="sourcePoint" />
          </mxGeometry>
        </mxCell>
        <mxCell id="mIXVUf0EgtsAIi1GxRL5-43" value="" style="endArrow=classic;html=1;exitX=0.523;exitY=0.823;exitDx=0;exitDy=0;exitPerimeter=0;entryX=0.52;entryY=0.631;entryDx=0;entryDy=0;entryPerimeter=0;" parent="1" edge="1">
          <mxGeometry width="50" height="50" relative="1" as="geometry">
            <mxPoint x="602.019" y="475.80999999999995" as="sourcePoint" />
            <mxPoint x="962" y="474.279" as="targetPoint" />
          </mxGeometry>
        </mxCell>
        <mxCell id="mIXVUf0EgtsAIi1GxRL5-45" value="updateContainerResources" style="edgeLabel;html=1;align=center;verticalAlign=middle;resizable=0;points=[];rounded=1;" parent="mIXVUf0EgtsAIi1GxRL5-43" vertex="1" connectable="0">
          <mxGeometry x="-0.1686" y="-2" relative="1" as="geometry">
            <mxPoint x="36" y="-15" as="offset" />
          </mxGeometry>
        </mxCell>
        <mxCell id="mIXVUf0EgtsAIi1GxRL5-40" value="" style="points=[];perimeter=orthogonalPerimeter;shadow=0;strokeWidth=1;rounded=1;" parent="1" vertex="1">
          <mxGeometry x="955" y="473" width="10" height="67" as="geometry" />
        </mxCell>
        <mxCell id="mIXVUf0EgtsAIi1GxRL5-44" value="" style="verticalAlign=bottom;endArrow=none;dashed=1;endSize=8;shadow=0;strokeWidth=1;" parent="1" target="mIXVUf0EgtsAIi1GxRL5-40" edge="1">
          <mxGeometry relative="1" as="geometry">
            <mxPoint x="601" y="500" as="targetPoint" />
            <mxPoint x="960" y="500" as="sourcePoint" />
          </mxGeometry>
        </mxCell>
        <mxCell id="mIXVUf0EgtsAIi1GxRL5-46" value="containerd" style="shape=umlLifeline;perimeter=lifelinePerimeter;container=1;collapsible=0;recursiveResize=0;shadow=0;strokeWidth=1;rounded=1;" parent="1" vertex="1">
          <mxGeometry x="1076" y="41" width="100" height="689" as="geometry" />
        </mxCell>
        <mxCell id="mIXVUf0EgtsAIi1GxRL5-48" value="" style="points=[];perimeter=orthogonalPerimeter;shadow=0;strokeWidth=1;rounded=1;" parent="mIXVUf0EgtsAIi1GxRL5-46" vertex="1">
          <mxGeometry x="45" y="451" width="10" height="50" as="geometry" />
        </mxCell>
        <mxCell id="mIXVUf0EgtsAIi1GxRL5-50" value="return" style="verticalAlign=bottom;endArrow=open;dashed=1;endSize=8;shadow=0;strokeWidth=1;" parent="mIXVUf0EgtsAIi1GxRL5-46" edge="1">
          <mxGeometry relative="1" as="geometry">
            <mxPoint x="-110" y="497" as="targetPoint" />
            <mxPoint x="44" y="497" as="sourcePoint" />
          </mxGeometry>
        </mxCell>
        <mxCell id="CH359fGrDtfwWzSx6-Jh-12" value="" style="points=[];perimeter=orthogonalPerimeter;shadow=0;strokeWidth=1;rounded=1;" vertex="1" parent="mIXVUf0EgtsAIi1GxRL5-46">
          <mxGeometry x="45" y="561" width="10" height="49" as="geometry" />
        </mxCell>
        <mxCell id="mIXVUf0EgtsAIi1GxRL5-47" value="" style="endArrow=classic;html=1;exitX=0.552;exitY=0.676;exitDx=0;exitDy=0;exitPerimeter=0;" parent="1" edge="1">
          <mxGeometry width="50" height="50" relative="1" as="geometry">
            <mxPoint x="965.1999999999998" y="491.7640000000001" as="sourcePoint" />
            <mxPoint x="1125.5" y="491.7640000000001" as="targetPoint" />
          </mxGeometry>
        </mxCell>
        <mxCell id="mIXVUf0EgtsAIi1GxRL5-49" value="updateContainerResources" style="edgeLabel;html=1;align=center;verticalAlign=middle;resizable=0;points=[];rounded=1;" parent="1" vertex="1" connectable="0">
          <mxGeometry x="1044.9961493438545" y="481.172037345503" as="geometry" />
        </mxCell>
        <mxCell id="CH359fGrDtfwWzSx6-Jh-6" value="update pod cache with latest status from ContainerStatus API" style="text;html=1;strokeColor=none;fillColor=none;align=center;verticalAlign=middle;whiteSpace=wrap;rounded=0;" vertex="1" parent="1">
          <mxGeometry x="634" y="635" width="141" height="30" as="geometry" />
        </mxCell>
        <mxCell id="CH359fGrDtfwWzSx6-Jh-7" value="" style="endArrow=classic;html=1;exitX=0.523;exitY=0.823;exitDx=0;exitDy=0;exitPerimeter=0;entryX=0.52;entryY=0.631;entryDx=0;entryDy=0;entryPerimeter=0;" edge="1" parent="1">
          <mxGeometry width="50" height="50" relative="1" as="geometry">
            <mxPoint x="601.999" y="582.81" as="sourcePoint" />
            <mxPoint x="961.98" y="581.279" as="targetPoint" />
          </mxGeometry>
        </mxCell>
        <mxCell id="CH359fGrDtfwWzSx6-Jh-8" value="ContainerStatus" style="edgeLabel;html=1;align=center;verticalAlign=middle;resizable=0;points=[];rounded=1;" vertex="1" connectable="0" parent="CH359fGrDtfwWzSx6-Jh-7">
          <mxGeometry x="-0.1686" y="-2" relative="1" as="geometry">
            <mxPoint x="36" y="-15" as="offset" />
          </mxGeometry>
        </mxCell>
        <mxCell id="CH359fGrDtfwWzSx6-Jh-9" value="" style="points=[];perimeter=orthogonalPerimeter;shadow=0;strokeWidth=1;rounded=1;" vertex="1" parent="1">
          <mxGeometry x="954.98" y="580" width="10" height="67" as="geometry" />
        </mxCell>
        <mxCell id="CH359fGrDtfwWzSx6-Jh-10" value="" style="endArrow=classic;html=1;exitX=0.552;exitY=0.676;exitDx=0;exitDy=0;exitPerimeter=0;" edge="1" parent="1">
          <mxGeometry width="50" height="50" relative="1" as="geometry">
            <mxPoint x="965.1799999999998" y="599.684" as="sourcePoint" />
            <mxPoint x="1125.48" y="599.684" as="targetPoint" />
          </mxGeometry>
        </mxCell>
        <mxCell id="CH359fGrDtfwWzSx6-Jh-11" value="ContainerStatus" style="edgeLabel;html=1;align=center;verticalAlign=middle;resizable=0;points=[];" vertex="1" connectable="0" parent="CH359fGrDtfwWzSx6-Jh-10">
          <mxGeometry x="-0.2536" y="-2" relative="1" as="geometry">
            <mxPoint x="20" y="-12" as="offset" />
          </mxGeometry>
        </mxCell>
        <mxCell id="CH359fGrDtfwWzSx6-Jh-13" value="return" style="verticalAlign=bottom;endArrow=open;dashed=1;endSize=8;shadow=0;strokeWidth=1;" edge="1" parent="1">
          <mxGeometry relative="1" as="geometry">
            <mxPoint x="964.98" y="647" as="targetPoint" />
            <mxPoint x="1120" y="647" as="sourcePoint" />
          </mxGeometry>
        </mxCell>
        <mxCell id="mIXVUf0EgtsAIi1GxRL5-11" value="" style="endArrow=classic;html=1;" parent="1" edge="1">
          <mxGeometry width="50" height="50" relative="1" as="geometry">
            <mxPoint x="150" y="290" as="sourcePoint" />
            <mxPoint x="430" y="290" as="targetPoint" />
          </mxGeometry>
        </mxCell>
        <mxCell id="mIXVUf0EgtsAIi1GxRL5-12" value="setPodResizeStatus" style="edgeLabel;html=1;align=center;verticalAlign=middle;resizable=0;points=[];rounded=1;" parent="mIXVUf0EgtsAIi1GxRL5-11" vertex="1" connectable="0">
          <mxGeometry x="0.0936" y="1" relative="1" as="geometry">
            <mxPoint x="-7" y="-8" as="offset" />
          </mxGeometry>
        </mxCell>
        <mxCell id="CH359fGrDtfwWzSx6-Jh-16" value="syncPodFn" style="text;html=1;strokeColor=none;fillColor=none;align=center;verticalAlign=middle;whiteSpace=wrap;rounded=0;" vertex="1" parent="1">
          <mxGeometry x="170" y="100" width="100" height="30" as="geometry" />
        </mxCell>
      </root>
    </mxGraphModel>
  </diagram>
</mxfile>
